<?xml version="1.0" standalone="no"?>
<!DOCTYPE svg PUBLIC "-//W3C//DTD SVG 20010904//EN"
 "http://www.w3.org/TR/2001/REC-SVG-20010904/DTD/svg10.dtd">
<svg version="1.0" xmlns="http://www.w3.org/2000/svg"
 width="176.000000pt" height="176.000000pt" viewBox="0 0 176.000000 176.000000"
 preserveAspectRatio="xMidYMid meet">
<metadata>
Created by potrace 1.14, written by Peter Selinger 2001-2017
</metadata>
<g transform="translate(0.000000,176.000000) scale(0.100000,-0.100000)"
fill="#000000" stroke="none">
<path d="M1 1388 c1 -241 4 -357 10 -329 36 184 152 376 304 504 82 69 237
148 345 176 l75 20 -367 0 -368 1 1 -372z"/>
<path d="M1087 1740 c171 -45 284 -110 414 -240 129 -128 201 -260 239 -440
l19 -85 0 393 1 392 -372 -1 -373 0 72 -19z"/>
<path d="M885 1499 c-47 -23 -50 -39 -53 -316 l-3 -263 65 0 66 0 0 100 0 100
45 0 45 0 0 -100 0 -100 65 0 65 0 0 243 c0 269 -6 309 -50 332 -34 17 -212
20 -245 4z m163 -181 l3 -108 -46 0 -45 0 0 103 c0 57 3 107 7 111 4 4 23 6
43 4 l35 -3 3 -107z"/>
<path d="M570 1210 l0 -290 65 0 65 0 0 290 0 290 -65 0 -65 0 0 -290z"/>
<path d="M682 788 c-18 -18 -14 -46 7 -58 24 -12 48 -4 54 19 10 40 -33 67
-61 39z"/>
<path d="M1750 761 c0 -48 -48 -197 -90 -280 -121 -242 -371 -425 -641 -470
-37 -6 73 -9 344 -10 l397 -1 0 395 c0 217 -2 395 -5 395 -3 0 -5 -13 -5 -29z"/>
<path d="M1 378 l-1 -378 393 1 392 0 -85 18 c-177 38 -334 125 -456 253 -119
126 -195 265 -229 423 -12 53 -13 19 -14 -317z"/>
<path d="M670 551 c0 -140 -1 -149 -20 -154 -12 -3 -20 -14 -20 -26 0 -18 6
-21 39 -21 67 0 71 10 71 191 l0 159 -35 0 -35 0 0 -149z"/>
<path d="M836 684 c-10 -9 -16 -33 -16 -60 0 -60 25 -84 86 -84 44 0 45 -1 42
-27 -4 -36 -52 -46 -63 -14 -4 15 -15 21 -36 21 -24 0 -29 -4 -29 -23 0 -47
23 -62 95 -62 79 0 95 14 95 85 0 61 -20 80 -83 80 -43 0 -47 2 -47 25 0 21 5
25 30 25 17 0 30 -4 30 -10 0 -5 16 -10 35 -10 39 0 44 13 19 48 -13 19 -24
22 -79 22 -44 0 -68 -5 -79 -16z"/>
<path d="M1090 680 c-5 -10 -10 -57 -10 -104 0 -74 3 -89 21 -107 17 -17 29
-20 60 -16 38 5 39 4 39 -24 0 -24 -4 -29 -25 -29 -16 0 -25 6 -25 15 0 10
-10 15 -30 15 -25 0 -30 -4 -30 -24 0 -40 25 -56 89 -56 89 0 91 5 91 192 l0
156 -85 1 c-73 1 -86 -2 -95 -19z m108 -103 c3 -77 3 -77 -23 -77 -24 0 -25 1
-25 73 0 77 4 90 30 85 12 -3 16 -20 18 -81z"/>
<path d="M523 503 c-19 -7 -16 -51 4 -62 37 -20 71 27 41 57 -13 13 -24 14
-45 5z"/>
</g>
</svg>
